# xmcd CD database file
#
# Track frame offsets:
#	150
#	37100
#	68965
#	99985
#	129680
#	163180
#	200827
#	258472
#
# Disc length: 3927 seconds
#
# Revision: 0
# Processed by: cddbd v1.5.2PL0 Copyright (c) Steve Scherf et al.
# Submitted via: CDex 1.70beta2
#
DISCID=790f5508
DTITLE=Bob Rodriguez - Mist
DYEAR=1995
DGENRE=Jazz
TTITLE0=Dolphin Dance
TTITLE1=Mist
TTITLE2=I Will Say Goodbye
TTITLE3=Loose And Open
TTITLE4=August 1st
TTITLE5=Prolotsian Dances
TTITLE6=Constellation
TTITLE7=Waltz For Derby
EXTD=YEAR: 1995
EXTT0=
EXTT1=
EXTT2=
EXTT3=
EXTT4=
EXTT5=
EXTT6=
EXTT7=
PLAYORDER=
